<?xml version="1.0" encoding="UTF-8"?>
<svg id="Layer_1" data-name="Layer 1" xmlns="http://www.w3.org/2000/svg" xmlns:xlink="http://www.w3.org/1999/xlink" viewBox="0 0 512 512">
  <defs>
    <style>
      .cls-1 {
        fill: none;
      }

      .cls-2 {
        fill: #f58220;
      }

      .cls-3 {
        fill: #d1d3d4;
      }

      .cls-4 {
        fill: #231f20;
      }

      .cls-5 {
        clip-path: url(#clippath);
      }
    </style>
    <clipPath id="clippath">
      <rect class="cls-1" x="21.52" y="21.52" width="468.97" height="468.97" rx="82.39" ry="82.39"/>
    </clipPath>
  </defs>
  <g class="cls-5">
    <rect class="cls-4" x="21.52" y="21.52" width="468.97" height="468.97"/>
    <path class="cls-3" d="M677.94,70.71S427.85-71.06,427.85-23.27s-173.63,172.04-89.2,226.19c59.11,37.92,29.99,111.75,7.2,152.62-13.03,23.37-18.59,50.15-15.88,76.77,7.09,69.61,34.09,191.62,136.11,200.69,143.36,12.74,237.34-162.48,237.34-162.48l-25.49-399.82Z"/>
    <path class="cls-2" d="M3.19-62.16s166.74,15.84,176.75,130.06,1.67,263.45-68.36,245.94c-43.21-10.8-43.57,40.3-37.51,81.02,3.26,21.88,28.3,32.74,46.54,20.23,54.31-37.25,147.5-93.02,123.53-18.71-33.35,103.38-224.27,212.6-224.27,212.6L3.19-62.16Z"/>
  </g>
</svg>